<?xml version="1.0" standalone="no"?><!DOCTYPE svg PUBLIC "-//W3C//DTD SVG 1.1//EN" "http://www.w3.org/Graphics/SVG/1.1/DTD/svg11.dtd"><svg t="1577929631566" class="icon" viewBox="0 0 1024 1024" version="1.1" xmlns="http://www.w3.org/2000/svg" p-id="2572" width="512" height="512" xmlns:xlink="http://www.w3.org/1999/xlink"><defs><style type="text/css"></style></defs><path d="M785.226752 604.542c-16.262144-6.806-31.921152-12.694-47.024128-17.726 15.721472-59.547 25.869312-127.997 1.514496-197.946C694.21056 258.155 514.843648 124.815 402.407424 115.667c-112.437248-9.142-175.348736 82.353-175.348736 82.353l79.601664 66.912c-1.518592 0.375-3.058688 0.735-4.649984 1.056-38.817792 7.839-74.96192-10.454-74.96192-10.454-53.541888-15.688-70.934528 3.924-70.934528 3.924 100.386816 18.298-12.049408 45.747-12.049408 45.747 49.528832 14.378 99.05152-20.909 99.05152-20.909l69.609472-5.228 17.39776 27.445L252.48768 365.34c34.809856 37.903 119.128064 70.58 168.656896 43.135 49.533952-27.453 155.272192-74.513 198.109184 5.228 27.275264 50.785 20.892672 79.302-3.245056 150.043-131.78368-2.183-208.193536 84.238-273.835008 202.881-64.077824 115.817-187.393024 32.685-187.393024 32.685s45.509632 60.131 149.914624 77.121c104.404992 16.983 140.544-125.492 198.104064-177.765 21.226496-19.278 48.641024-28.242 78.348288-30.772-6.564864 20.892-13.530112 44.082-20.79232 69.984-61.568 219.606 93.693952 205.218 199.442432 194.759C865.545216 922.184 1005.128704 696.574 785.226752 604.542zM403.736576 238.534c-8.22784-0.917-15.490048-0.894-22.10816-0.212-3.618816-16.799 3.320832-38.626 30.140416-37.69C449.247232 201.938 450.586624 243.767 403.736576 238.534zM765.145088 805.846c-40.153088 18.299-68.260864-16.984-61.568-88.876 0.910336-9.777 3.089408-20.555 6.049792-32.193 8.569856 2.396 16.851968 4.88 24.73472 7.35C805.303296 714.344 805.303296 787.545 765.145088 805.846z" p-id="2573" fill="#ff0025"></path></svg>